<svg width="702" height="673" viewBox="0 0 702 673" fill="none" xmlns="http://www.w3.org/2000/svg">
<path fill-rule="evenodd" clip-rule="evenodd" d="M570 3.11002C565.875 4.46902 556.425 7.27701 549 9.34901C541.575 11.422 531.917 15.566 527.537 18.559C523.157 21.552 518.817 24 517.891 24C514.982 24 491.568 39.77 462 61.646C446.325 73.242 425.4 86.627 415.5 91.389C402.993 97.404 387.451 109.73 364.574 131.773C310.541 183.838 276.464 215.908 240 249.013C221.025 266.24 194.7 290.61 181.5 303.17C144.589 338.289 108.415 372.349 87.781 391.412C72.208 405.801 69.365 409.909 70.859 415.864C71.847 419.801 70.848 429.144 68.639 436.627C64.42 450.916 59.26 454.284 44.407 452.445C38.543 451.719 32.521 455.542 18.388 468.962C8.275 478.567 0 487.829 0 489.545C0 493.843 58.45 558.023 119.075 620.295C155.376 657.582 171.409 672.077 176.317 672.045C180.09 672.02 189.132 666.471 196.567 659.618C208.982 648.174 210 646.117 210 632.465C210 618.445 210.529 617.473 220.404 613.347C226.126 610.956 233.213 608.962 236.154 608.915C251.105 608.679 297.416 570.595 357 509.536C367.725 498.545 383.925 483.202 393 475.439C429.175 444.493 575.133 302.453 597 276.914C601.125 272.097 612.857 258.693 623.071 247.127C665.555 199.026 701.898 118.946 701.968 73.284C702.011 44.66 695.763 27.372 682.188 18.557C653.913 0.197014 653.104 -0.0199841 614.159 0.319016C593.996 0.495016 574.125 1.75002 570 3.11002Z" fill="black"/>
</svg>
