<svg width="20" height="20" viewBox="0 0 20 20" fill="none" xmlns="http://www.w3.org/2000/svg">
<path d="M2 17V15.5H4V7.9C4 6.5 4.4125 5.24583 5.2375 4.1375C6.0625 3.02917 7.15 2.33333 8.5 2.05V1.5C8.5 1.08333 8.64583 0.729167 8.9375 0.4375C9.22917 0.145833 9.58333 0 10 0C10.4167 0 10.7708 0.145833 11.0625 0.4375C11.3542 0.729167 11.5 1.08333 11.5 1.5V2.05C12.85 2.33333 13.9375 3.02917 14.7625 4.1375C15.5875 5.24583 16 6.5 16 7.9V15.5H18V17H2ZM10 20C9.45 20 8.97917 19.8042 8.5875 19.4125C8.19583 19.0208 8 18.55 8 18H12C12 18.55 11.8042 19.0208 11.4125 19.4125C11.0208 19.8042 10.55 20 10 20ZM5.5 15.5H14.5V7.9C14.5 6.65 14.0625 5.5875 13.1875 4.7125C12.3125 3.8375 11.25 3.4 10 3.4C8.75 3.4 7.6875 3.8375 6.8125 4.7125C5.9375 5.5875 5.5 6.65 5.5 7.9V15.5Z" fill="#5F6368"/>
</svg>
