<svg width="702" height="673" viewBox="0 0 702 673" fill="none" xmlns="http://www.w3.org/2000/svg">
<path d="M416.906 125.25C420.75 129.788 431.456 141.612 440.697 151.527C449.939 161.442 466.414 179.667 477.309 192.027C488.204 204.387 511.492 230.599 529.059 250.276C546.627 269.952 561 287.577 561 289.442C561 291.306 545.138 308.254 525.75 327.103C440.465 410.019 392.931 455.854 373.444 473.966C361.925 484.672 331.796 513.359 306.492 537.716C281.187 562.072 258.912 581.942 256.992 581.871C255.071 581.8 234.206 563.237 210.624 540.621C174.3 505.784 167.486 497.832 166.036 488.588C164.895 481.307 165.474 477.407 168.553 473.692C168.996 473.157 169.492 472.625 170.042 472.088C173.187 469.014 192.56 450.975 213.094 432C233.628 413.025 266.645 381.918 286.464 362.874C306.284 343.829 333.3 318.195 346.5 305.909C374.953 279.425 413.869 242.887 441.779 216.451C457.634 201.433 461.31 196.354 459.148 192.451C454.857 184.706 417.16 147 413.708 147C412.007 147 404.289 153.605 396.558 161.678C384.715 174.044 339.351 217.129 241.5 308.947C175.44 370.934 109.535 424.759 109.535 424.759C109.535 424.759 93 424.363 93 412.817C93 403.071 98.256 397.601 180.289 321.973C228.297 277.713 277.91 232.217 290.539 220.871C303.167 209.524 323.625 190.581 336 178.774C374.45 142.09 403.121 117 406.591 117C408.421 117 413.063 120.713 416.906 125.25Z" fill="black"/>
<path d="M655.803 19.724C676.704 30.709 681.09 36.01 685.732 55.895C693.867 90.743 683.297 125.866 645.675 189C635.721 205.704 602.974 248.797 595.558 254.952C592.414 257.561 588.974 255.513 580.011 245.697C573.68 238.764 558.916 222.834 547.203 210.296C517.437 178.435 507 166.147 507 162.961C507 159.509 581.326 86.408 601.5 70.017C618.084 56.543 629.917 49.959 643.5 46.648L652.5 44.453L639 37.362C627.632 31.391 620.991 30.25 596.955 30.136C571.15 30.013 566.629 30.869 549.848 39.056C539.639 44.037 514.096 60.894 493.086 76.517C457.309 103.121 455 110.5 449.514 100.06C446.559 97.386 444.883 93.999 445.789 92.533C448.03 88.907 490.824 57.609 508.731 46.5C556.041 17.149 568.098 13.35 616.803 12.449C637.633 12.064 643.207 13.104 655.803 19.724Z" fill="black"/>
<path fill-rule="evenodd" clip-rule="evenodd" d="M570 3.11002C565.875 4.46902 556.425 7.27701 549 9.34901C541.575 11.422 531.917 15.566 527.537 18.559C523.157 21.552 518.817 24 517.891 24C514.982 24 491.568 39.77 462 61.646C446.325 73.242 425.4 86.627 415.5 91.389C402.993 97.404 387.451 109.73 364.574 131.773C310.541 183.838 276.464 215.908 240 249.013C221.025 266.24 194.7 290.61 181.5 303.17C144.589 338.289 108.415 372.349 87.781 391.412C72.208 405.801 69.365 409.909 70.859 415.864C71.847 419.801 70.848 429.144 68.639 436.627C64.42 450.916 59.26 454.284 44.407 452.445C38.543 451.719 32.521 455.542 18.388 468.962C8.275 478.567 0 487.829 0 489.545C0 493.843 58.45 558.023 119.075 620.295C155.376 657.582 171.409 672.077 176.317 672.045C180.09 672.02 189.132 666.471 196.567 659.618C208.982 648.174 210 646.117 210 632.465C210 618.445 210.529 617.473 220.404 613.347C226.126 610.956 233.213 608.962 236.154 608.915C251.105 608.679 297.416 570.595 357 509.536C367.725 498.545 383.925 483.202 393 475.439C429.175 444.493 575.133 302.453 597 276.914C601.125 272.097 612.857 258.693 623.071 247.127C665.555 199.026 701.898 118.946 701.968 73.284C702.011 44.66 695.763 27.372 682.188 18.557C653.913 0.197014 653.104 -0.0199841 614.159 0.319016C593.996 0.495016 574.125 1.75002 570 3.11002ZM685.732 55.895C681.09 36.01 676.704 30.709 655.803 19.724C643.207 13.104 637.633 12.064 616.803 12.449C568.098 13.35 556.041 17.149 508.731 46.5C490.824 57.609 448.03 88.907 445.789 92.533C444.883 93.999 446.559 97.386 449.514 100.06C462.703 116.412 484.8 138.5 488.65 143.5C492.5 148.5 507 162.961 507 162.961C507 166.147 517.437 178.435 547.203 210.296C558.916 222.834 573.68 238.764 580.011 245.697C588.974 255.513 592.414 257.561 595.558 254.952C602.974 248.797 635.721 205.704 645.675 189C683.297 125.866 693.867 90.743 685.732 55.895ZM526.651 205.5C513.716 190.65 487.014 161.288 467.313 140.25C447.612 119.213 430.423 102 429.114 102C427.805 102 425.07 104.006 423.034 106.458C418.927 111.408 420.147 112.969 488.65 190.471C491.516 193.714 494.284 196.846 496.958 199.871C556.254 266.971 569.021 281.419 574.644 279.032C576.186 278.378 577.191 276.455 578.472 274.006C578.682 273.604 578.9 273.188 579.128 272.761C581.816 267.738 579.89 264.292 566.228 249.678C557.396 240.23 539.586 220.35 526.651 205.5ZM440.697 151.527C431.456 141.612 420.75 129.788 416.906 125.25C413.063 120.713 408.421 117 406.591 117C403.121 117 374.45 142.09 336 178.774C323.625 190.581 303.167 209.524 290.539 220.871C277.91 232.217 228.297 277.713 180.289 321.973C98.256 397.601 93 403.071 93 412.817C93 424.363 109.535 424.759 109.535 424.759C109.091 425.154 108.608 425.555 108.1 425.977C104.251 429.172 99 433.531 99 445.133C99 447.406 100.986 450.913 103.413 452.927C105.839 454.942 111.923 462.776 116.932 470.338C127.153 485.77 141 492.089 149.113 486.985C158.102 484.644 162.187 480.541 168.553 473.692C165.474 477.407 164.895 481.307 166.036 488.588C167.486 497.832 174.3 505.784 210.624 540.621C234.206 563.237 255.071 581.8 256.992 581.871C258.912 581.942 281.187 562.072 306.492 537.716C331.796 513.359 361.925 484.672 373.444 473.966C392.931 455.854 440.465 410.019 525.75 327.103C545.138 308.254 561 291.306 561 289.442C561 287.577 546.627 269.952 529.059 250.276C511.492 230.599 488.204 204.387 477.309 192.027C466.414 179.667 449.939 161.442 440.697 151.527ZM130.635 558.264C95.235 522.644 62.553 489.01 58.011 483.521C44.431 467.116 41.412 466.777 28.315 480.189L16.696 492.089L46.789 522.794C75.547 552.138 96.104 573.925 132.372 613.5C141.445 623.4 154.768 637.94 161.979 645.811L175.09 660.121L185.045 650.472C203.717 632.374 202.882 630.96 130.635 558.264ZM201 597.526C201 591.166 193.913 582.427 168.302 557.203C150.318 539.491 134.118 525 132.302 525C130.486 525 129.038 528.713 129.085 533.25C129.15 539.603 136.68 549.338 161.832 575.583C180.223 594.775 195.915 608.788 197.747 607.656C199.536 606.551 201 601.992 201 597.526Z" fill="black"/>
</svg>
