<svg width="20" height="19" viewBox="0 0 20 19" fill="none" xmlns="http://www.w3.org/2000/svg">
<path d="M0 18V16H2V0H12V1H16V7H14V3H12V7.675C10.7833 8.25833 9.8125 9.12083 9.0875 10.2625C8.3625 11.4042 8 12.65 8 14C8 14.7 8.10833 15.3958 8.325 16.0875C8.54167 16.7792 8.85 17.4167 9.25 18H0ZM8 10C8.28333 10 8.52083 9.90417 8.7125 9.7125C8.90417 9.52083 9 9.28333 9 9C9 8.71667 8.90417 8.47917 8.7125 8.2875C8.52083 8.09583 8.28333 8 8 8C7.71667 8 7.47917 8.09583 7.2875 8.2875C7.09583 8.47917 7 8.71667 7 9C7 9.28333 7.09583 9.52083 7.2875 9.7125C7.47917 9.90417 7.71667 10 8 10ZM14 19L13.7 17.5C13.5 17.4167 13.3125 17.325 13.1375 17.225C12.9625 17.125 12.7917 17.0083 12.625 16.875L11.175 17.375L10.175 15.65L11.3 14.65C11.2667 14.4 11.25 14.1875 11.25 14.0125C11.25 13.8375 11.2667 13.625 11.3 13.375L10.175 12.375L11.175 10.65L12.625 11.15C12.7917 11.0167 12.9625 10.8958 13.1375 10.7875C13.3125 10.6792 13.5 10.5833 13.7 10.5L14 9H16L16.3 10.5C16.5 10.5833 16.6875 10.675 16.8625 10.775C17.0375 10.875 17.2083 10.9917 17.375 11.125L18.825 10.625L19.825 12.35L18.7 13.35C18.7333 13.6 18.75 13.8125 18.75 13.9875C18.75 14.1625 18.7333 14.375 18.7 14.625L19.825 15.625L18.825 17.35L17.375 16.875C17.2083 17.0083 17.0375 17.125 16.8625 17.225C16.6875 17.325 16.5 17.4167 16.3 17.5L16 19H14ZM15 16C15.55 16 16.0208 15.8042 16.4125 15.4125C16.8042 15.0208 17 14.55 17 14C17 13.45 16.8042 12.9792 16.4125 12.5875C16.0208 12.1958 15.55 12 15 12C14.45 12 13.9792 12.1958 13.5875 12.5875C13.1958 12.9792 13 13.45 13 14C13 14.55 13.1958 15.0208 13.5875 15.4125C13.9792 15.8042 14.45 16 15 16Z" fill="#5F6368"/>
</svg>
