<svg width="20" height="19" viewBox="0 0 20 19" fill="none" xmlns="http://www.w3.org/2000/svg">
<path d="M13.1999 12.8L14.3499 8.65L10.7999 6.2L9.64991 10.35L13.1999 12.8ZM1.99991 16.825L1.17491 16.425C0.65824 16.2083 0.30824 15.8375 0.124906 15.3125C-0.0584271 14.7875 -0.0334271 14.2667 0.199906 13.75L1.99991 9.85V16.825ZM5.99991 19C5.44991 19 4.97907 18.8 4.58741 18.4C4.19574 18 3.99991 17.525 3.99991 16.975V11L6.67491 18.35C6.72491 18.4667 6.76657 18.5792 6.79991 18.6875C6.83324 18.7958 6.89157 18.9 6.97491 19H5.99991ZM11.1499 18.875C10.6332 19.0583 10.1166 19.0333 9.59991 18.8C9.08324 18.5667 8.73324 18.1917 8.54991 17.675L4.12491 5.45C3.94157 4.93333 3.96657 4.42083 4.19991 3.9125C4.43324 3.40416 4.80824 3.05833 5.32491 2.875L12.8499 0.124998C13.3666 -0.0583355 13.8791 -0.0333355 14.3874 0.199998C14.8957 0.433331 15.2416 0.808331 15.4249 1.325L19.8749 13.55C20.0582 14.0667 20.0332 14.5792 19.7999 15.0875C19.5666 15.5958 19.1916 15.9417 18.6749 16.125L11.1499 18.875ZM10.4499 17L17.9999 14.25L13.5249 2L5.99991 4.75L10.4499 17Z" fill="#5F6368"/>
</svg>
